<svg xmlns="http://www.w3.org/2000/svg" width="256" height="256" fill="none" viewBox="0 0 256 256">
  <path d="m106.8 20.48c10.33-17.07 34.54-17.07 43.28 0l21.71 40.13c4.19 7.87 9.43 10.11 18.23 11.96l41.95 7.79c19.76 3.43 25.69 27.35 14.1 42.85l-29 30.09c-7.73 7.91-8.98 14.41-6.77 27.48l3.79 29.13c3.99 20.02-11.29 39.61-34.42 36.71l-39.54-20.54c-9.93-4.46-14.08-4.46-24.01 0l-37.64 20c-20.4 6.98-38.36-7.15-37.4-25.93l6.62-45.8c1.17-8.69-1.98-13.37-9.4-21.39l-28.21-28.99c-10.9-11.22-6.27-35.36 12.93-42.77l43.91-8.37c9.93-2.05 13.06-4.04 18.41-13.42l21.46-38.93z" fill="url(#paint0_radial_122_438)" stroke="url(#paint1_linear_122_438)" stroke-width="1.108"/>
  <path d="m107.2 21.33c9.39-16.26 31.66-16.26 40.63 0l21.08 39.28c4.89 9.02 9.65 11.1 20.03 13.15l40 6.44c19.89 2.94 26.69 24.47 15.98 40.94l-30.29 31.01c-8.52 8.86-9.19 15.11-7.37 27.26l4.76 32.51c3.04 18.99-11.75 35.87-31.16 32.87l-37.2-18.98c-11.43-5.62-15.99-5.62-27.42 0l-36.44 18.41c-18.18 8.49-36.41-5.06-37.64-21.98l6.8-46.07c1.44-9.81-1.39-14.4-10.1-23.47l-25.6-28.24c-11.93-12.15-6.24-35.25 11.78-42.44l43.06-8.26c9.93-2.05 13.33-4.65 19.26-15.35l19.84-37.08z" fill="url(#paint2_radial_122_438)" fill-opacity=".9" opacity=".7"/>
  <defs>
    <radialGradient id="paint0_radial_122_438" cx="0" cy="0" r="1" gradientTransform="translate(128.4 40.37) rotate(78.17) scale(207.9 228)" gradientUnits="userSpaceOnUse">
      <stop stop-color="#E5178F" offset="0"/>
      <stop stop-color="#F3A5A6" offset=".349"/>
      <stop stop-color="#F5D9D2" offset=".6667"/>
      <stop stop-color="#B188F2" offset="1"/>
    </radialGradient>
    <linearGradient id="paint1_linear_122_438" x1="128" x2="128" y1="8.8" y2="248.2" gradientUnits="userSpaceOnUse">
      <stop stop-color="#C5B9D9" offset="0"/>
      <stop stop-color="#A4C5E0" stop-opacity=".8281" offset=".3021"/>
      <stop stop-color="#96C8E5" stop-opacity=".6198" offset=".5885"/>
      <stop stop-color="#96C8E5" stop-opacity=".7135" offset=".8021"/>
      <stop stop-color="#96C8E5" stop-opacity=".85" offset="1"/>
    </linearGradient>
    <radialGradient id="paint2_radial_122_438" cx="0" cy="0" r="1" gradientTransform="translate(81.6 190.8) rotate(-49.68) scale(160.9 184.5)" gradientUnits="userSpaceOnUse">
      <stop stop-color="#14E2F6" offset="0"/>
      <stop stop-color="#14BCE2" offset=".375"/>
      <stop stop-color="#37D7F6" stop-opacity=".7292" offset=".6406"/>
      <stop stop-color="#22B1E7" stop-opacity=".6198" offset=".8177"/>
      <stop stop-color="#22B1E7" stop-opacity=".43" offset="1"/>
    </radialGradient>
  </defs>
</svg>

